<?xml version="1.0" encoding="iso-8859-1"?>
<!-- Generator: Adobe Illustrator 22.0.1, SVG Export Plug-In . SVG Version: 6.00 Build 0)  -->
<svg version="1.1" id="Layer_1_1_" xmlns="http://www.w3.org/2000/svg" xmlns:xlink="http://www.w3.org/1999/xlink" x="0px" y="0px"
	 viewBox="0 0 64 64" style="enable-background:new 0 0 64 64;" xml:space="preserve">
<path style="fill:#BDD5EA;" d="M21,20h-6l-1,8l-3-8H5c-1.105,0-2-0.895-2-2V7c0-1.105,0.895-2,2-2h16"/>
<path style="fill:#FE5F55;" d="M13.464,9.784L12,11.261l-1.464-1.478c-0.809-0.816-2.12-0.816-2.929,0s-0.809,2.139,0,2.955
	L12,17.172l4.393-4.433c0.809-0.816,0.809-2.139,0-2.955C15.585,8.968,14.273,8.968,13.464,9.784z"/>
<path style="fill:#EAEAEA;" d="M39,21h-9l1,9l-5-9h-3c-1.105,0-2-0.895-2-2V5c0-1.105,0.895-2,2-2h16c1.105,0,2,0.895,2,2v14
	C41,20.105,40.105,21,39,21z"/>
<path style="fill:#BDD5EA;" d="M42,5h17c1.1,0,2,0.9,2,2v11c0,1.1-0.9,2-2,2h-4l-4,8v-8H41"/>
<path style="fill:#577399;" d="M57.858,49.733c-1.07-1.07-2.36-1.92-3.79-2.47h-7.98c-4.1,1.59-7.01,5.58-7.01,10.25V62h22v-4.487
	C61.078,54.473,59.848,51.723,57.858,49.733z"/>
<path style="fill:#577399;" d="M21.78,49.733c-1.07-1.07-2.36-1.92-3.79-2.47h-7.98C5.91,48.853,3,52.843,3,57.513V62h22v-4.487
	C25,54.473,23.77,51.723,21.78,49.733z"/>
<path style="fill:#495867;" d="M39.78,50.22c-1.07-1.07-2.36-1.92-3.79-2.47h-7.98C23.91,49.34,21,53.33,21,58v4h22v-4
	C43,54.96,41.77,52.21,39.78,50.22z"/>
<circle style="fill:#FFDBAC;" cx="32" cy="42" r="7"/>
<circle style="fill:#FFDBAC;" cx="50" cy="41" r="7"/>
<circle style="fill:#FFDBAC;" cx="14" cy="41" r="7"/>
<path d="M4,57c0-3.933,2.366-7.537,5.928-9.126C11.123,48.584,12.512,49,14,49c1.485,0,2.872-0.414,4.065-1.122
	c1.107,0.49,2.143,1.185,3.008,2.049c0.403,0.403,0.745,0.834,1.057,1.275C20.777,53.168,20,55.53,20,58v4h2v-4
	c0-3.933,2.366-7.537,5.928-9.126C29.123,49.584,30.512,50,32,50c1.485,0,2.872-0.414,4.065-1.122
	c1.107,0.49,2.143,1.185,3.008,2.049C40.961,52.815,42,55.327,42,58v4h2v-4c0-2.473-0.748-4.827-2.126-6.815
	c1.026-1.435,2.437-2.584,4.057-3.309C47.125,48.585,48.513,49,50,49c1.485,0,2.872-0.414,4.065-1.122
	c1.107,0.49,2.143,1.185,3.008,2.049C58.961,51.815,60,54.327,60,57v5h2v-5c0-3.207-1.247-6.221-3.513-8.487
	c-0.795-0.795-1.714-1.468-2.696-2.01C57.156,45.068,58,43.132,58,41c0-4.411-3.589-8-8-8s-8,3.589-8,8
	c0,2.133,0.844,4.068,2.209,5.504c-1.408,0.78-2.651,1.837-3.642,3.097c-0.028-0.028-0.052-0.06-0.08-0.088
	c-0.795-0.795-1.714-1.468-2.696-2.01C39.156,46.068,40,44.132,40,42c0-4.411-3.589-8-8-8s-8,3.589-8,8
	c0,2.131,0.843,4.065,2.206,5.5c-1.025,0.567-1.949,1.28-2.754,2.104c-0.295-0.377-0.615-0.742-0.964-1.092
	c-0.795-0.795-1.714-1.468-2.696-2.01C21.156,45.068,22,43.132,22,41c0-4.411-3.589-8-8-8s-8,3.589-8,8
	c0,2.131,0.843,4.065,2.206,5.5C4.441,48.586,2,52.623,2,57v5h2V57z M44,41c0-3.309,2.691-6,6-6s6,2.691,6,6s-2.691,6-6,6
	S44,44.309,44,41z M26,42c0-3.309,2.691-6,6-6s6,2.691,6,6s-2.691,6-6,6S26,45.309,26,42z M8,41c0-3.309,2.691-6,6-6s6,2.691,6,6
	s-2.691,6-6,6S8,44.309,8,41z"/>
<path d="M5,21h5.307l2.757,7.351C13.211,28.745,13.587,29,13.999,29c0.039,0,0.078-0.002,0.118-0.007
	c0.457-0.054,0.818-0.413,0.875-0.869L15.883,21h4.897c0.549,0.609,1.337,1,2.22,1h2.411l4.715,8.486C30.306,30.81,30.645,31,31,31
	c0.102,0,0.203-0.015,0.304-0.047c0.454-0.145,0.743-0.59,0.69-1.063L31.117,22H39c0.883,0,1.67-0.391,2.22-1h8.897l-0.109,7.124
	c0.057,0.457,0.418,0.815,0.875,0.869C50.923,28.998,50.962,29,51.001,29c0.412,0,0.788-0.255,0.936-0.649L55.693,21H59
	c1.654,0,3-1.346,3-3V7c0-1.654-1.346-3-3-3H41.816C41.402,2.839,40.302,2,39,2H23c-1.302,0-2.402,0.839-2.816,2H5
	C3.346,4,2,5.346,2,7v11C2,19.654,3.346,21,5,21z M42,6h17c0.552,0,1,0.449,1,1v11c0,0.551-0.448,1-1,1h-4
	c-0.417,0-0.79,0.259-0.937,0.649l-1.574,4.2l-0.497-3.973C51.93,19.375,51.504,19,51,19h-9V6z M22,5c0-0.551,0.448-1,1-1h16
	c0.552,0,1,0.449,1,1v14c0,0.551-0.448,1-1,1h-9c-0.284,0-0.556,0.121-0.745,0.333s-0.28,0.495-0.249,0.777l0.45,4.052l-2.582-4.648
	C26.698,20.197,26.363,20,26,20h-3c-0.552,0-1-0.449-1-1V5z M4,7c0-0.551,0.448-1,1-1h15v13h-5c-0.504,0-0.93,0.375-0.992,0.876
	l-0.497,3.973l-1.574-4.2C11.79,19.259,11.417,19,11,19H5c-0.552,0-1-0.449-1-1V7z"/>
<rect x="24" y="8" width="10" height="2"/>
<rect x="36" y="8" width="2" height="2"/>
<rect x="24" y="14" width="6" height="2"/>
<rect x="32" y="14" width="6" height="2"/>
<path d="M55.241,8.349l-5.298,6.18l-2.236-2.236l-2.414,1.414l4,3C49.48,16.895,49.735,17,50,17c0.013,0,0.025,0,0.038-0.001
	c0.278-0.01,0.54-0.137,0.721-0.348l6-7L55.241,8.349z"/>
<path d="M11.29,17.875c0.188,0.189,0.443,0.296,0.71,0.296s0.522-0.106,0.71-0.296l4.394-4.433c1.192-1.203,1.192-3.16,0-4.363
	c-1.161-1.172-3.189-1.17-4.349,0L12,9.841L11.245,9.08c-1.159-1.17-3.188-1.172-4.349,0c-1.192,1.203-1.192,3.16,0,4.363
	L11.29,17.875z M8.316,10.488c0.202-0.204,0.47-0.316,0.754-0.316c0.285,0,0.553,0.112,0.755,0.316l1.465,1.478
	c0.375,0.379,1.045,0.379,1.42,0l1.465-1.478c0.403-0.408,1.104-0.409,1.509,0c0.423,0.426,0.423,1.121,0,1.547L12,15.751
	l-3.684-3.716C7.894,11.608,7.894,10.914,8.316,10.488z"/>
</svg>
